<svg xmlns="http://www.w3.org/2000/svg" viewBox="0 0 512 512">
<rect width="512" height="512" rx="112" fill="#06101d"/>
<rect x="92" y="68" width="328" height="376" rx="44" fill="#ffffff"/>
<path d="M256 128c-55 72-103 108-103 166 0 49 40 89 89 89 17 0 34-5 47-15-8 30-25 53-49 69h82c-24-16-41-39-49-69 13 10 30 15 47 15 49 0 89-40 89-89 0-58-48-94-103-166l-25-33-25 33z" fill="#4b8cff"/>
<circle cx="386" cy="128" r="44" fill="#28d17c"/>
<path d="M373 128l10 10 18-23" fill="none" stroke="#fff" stroke-width="10" stroke-linecap="round" stroke-linejoin="round"/>
</svg>